<svg width="11" height="20" viewBox="0 0 11 20" fill="none" xmlns="http://www.w3.org/2000/svg">
<path d="M8.15957 4.39999H10.0596C10.2693 4.39999 10.4396 4.22079 10.4396 3.99999V1.30519C10.4396 1.09559 10.2864 0.921188 10.0881 0.906388C9.48349 0.861188 8.30245 0.799988 7.45315 0.799988C5.11957 0.799988 3.59957 2.27199 3.59957 4.94719V7.59999H0.93957C0.72981 7.59999 0.55957 7.77919 0.55957 7.99999V10.8C0.55957 11.0208 0.72981 11.2 0.93957 11.2H3.59957V18.8C3.59957 19.0208 3.76981 19.2 3.97957 19.2H6.63957C6.84933 19.2 7.01957 19.0208 7.01957 18.8V11.2H9.76393C9.95773 11.2 10.1204 11.0468 10.1417 10.844L10.4373 8.04399C10.4624 7.80719 10.286 7.59999 10.0596 7.59999H7.01957V5.59999C7.01957 4.93719 7.52991 4.39999 8.15957 4.39999Z" fill="white"/>
</svg>
