<svg width="17" height="16" viewBox="0 0 17 16" fill="none" xmlns="http://www.w3.org/2000/svg">
<path d="M4.2998 15.5H0.799805V4.99998H4.2998V15.5ZM2.5505 3.59998C1.5824 3.59998 0.799805 2.81528 0.799805 1.84928C0.799805 0.883276 1.5838 0.0999756 2.5505 0.0999756C3.5151 0.0999756 4.2998 0.884676 4.2998 1.84928C4.2998 2.81528 3.5151 3.59998 2.5505 3.59998ZM16.8998 15.5H13.5349V10.39C13.5349 9.17128 13.5118 7.60398 11.7856 7.60398C10.0335 7.60398 9.764 8.93118 9.764 10.3018V15.5H6.3998V4.99228H9.6296V6.42798H9.67511C10.1245 5.60198 11.2228 4.73118 12.8608 4.73118C16.2698 4.73118 16.8998 6.90748 16.8998 9.73688V15.5Z" fill="white"/>
</svg>
