<svg width="18" height="18" viewBox="0 0 18 18" fill="none" xmlns="http://www.w3.org/2000/svg">
<path d="M7.56043 1.08002C4.18402 1.08002 1.44043 3.82361 1.44043 7.20002C1.44043 10.5764 4.18402 13.32 7.56043 13.32C8.89637 13.32 10.1311 12.8897 11.1379 12.1613L15.8742 16.8863L16.8867 15.8738L12.2067 11.1825C13.1264 10.111 13.6804 8.72017 13.6804 7.20002C13.6804 3.82361 10.9368 1.08002 7.56043 1.08002ZM7.56043 1.80002C10.5473 1.80002 12.9604 4.21314 12.9604 7.20002C12.9604 10.1869 10.5473 12.6 7.56043 12.6C4.57355 12.6 2.16043 10.1869 2.16043 7.20002C2.16043 4.21314 4.57355 1.80002 7.56043 1.80002Z" fill="white" stroke="white" stroke-width="0.8" stroke-linejoin="round"/>
</svg>
